<svg width="168" height="168" viewBox="0 0 168 168" fill="none" xmlns="http://www.w3.org/2000/svg">
<path d="M32.75 126.5C39.8333 121.083 47.75 116.812 56.5 113.687C65.25 110.562 74.4167 109 84 109C93.5833 109 102.75 110.562 111.5 113.687C120.25 116.812 128.167 121.083 135.25 126.5C140.111 120.806 143.896 114.347 146.604 107.125C149.312 99.9028 150.667 92.1944 150.667 84C150.667 65.5278 144.174 49.7986 131.187 36.8125C118.201 23.8264 102.472 17.3333 84 17.3333C65.5278 17.3333 49.7986 23.8264 36.8125 36.8125C23.8264 49.7986 17.3333 65.5278 17.3333 84C17.3333 92.1944 18.6875 99.9028 21.3958 107.125C24.1042 114.347 27.8889 120.806 32.75 126.5ZM84 92.3333C75.8056 92.3333 68.8958 89.5208 63.2708 83.8958C57.6458 78.2708 54.8333 71.3611 54.8333 63.1667C54.8333 54.9722 57.6458 48.0625 63.2708 42.4375C68.8958 36.8125 75.8056 34 84 34C92.1944 34 99.1042 36.8125 104.729 42.4375C110.354 48.0625 113.167 54.9722 113.167 63.1667C113.167 71.3611 110.354 78.2708 104.729 83.8958C99.1042 89.5208 92.1944 92.3333 84 92.3333ZM84 167.333C72.4722 167.333 61.6389 165.146 51.5 160.771C41.3611 156.396 32.5417 150.458 25.0417 142.958C17.5417 135.458 11.6042 126.639 7.22916 116.5C2.85416 106.361 0.666664 95.5278 0.666664 84C0.666664 72.4722 2.85416 61.6389 7.22916 51.5C11.6042 41.3611 17.5417 32.5417 25.0417 25.0417C32.5417 17.5417 41.3611 11.6042 51.5 7.22916C61.6389 2.85416 72.4722 0.666656 84 0.666656C95.5278 0.666656 106.361 2.85416 116.5 7.22916C126.639 11.6042 135.458 17.5417 142.958 25.0417C150.458 32.5417 156.396 41.3611 160.771 51.5C165.146 61.6389 167.333 72.4722 167.333 84C167.333 95.5278 165.146 106.361 160.771 116.5C156.396 126.639 150.458 135.458 142.958 142.958C135.458 150.458 126.639 156.396 116.5 160.771C106.361 165.146 95.5278 167.333 84 167.333Z" fill="#3D5A80"/>
</svg>
